<?xml version="1.0" encoding="iso-8859-1"?>
<!-- Generator: Adobe Illustrator 19.0.0, SVG Export Plug-In . SVG Version: 6.00 Build 0)  -->
<svg version="1.1" id="Layer_1" xmlns="http://www.w3.org/2000/svg" xmlns:xlink="http://www.w3.org/1999/xlink" x="0px" y="0px"
	 viewBox="0 0 511.999 511.999" style="enable-background:new 0 0 511.999 511.999;" xml:space="preserve">
<g>
	<rect x="133.909" y="496.245" style="fill:#666666;" width="244.181" height="15.754"/>
	<rect x="248.117" y="425.645" style="fill:#666666;" width="15.754" height="74.555"/>
</g>
<path style="fill:#FFFFFF;" d="M36.218,72.523h439.564c13.477,0,24.403,10.925,24.403,24.403v302.978
	c0,13.477-10.925,24.403-24.403,24.403H36.218c-13.477,0-24.403-10.925-24.403-24.403V96.926
	C11.815,83.449,22.74,72.523,36.218,72.523z"/>
<path style="fill:#666666;" d="M475.766,80.4c9.114,0,16.511,7.373,16.542,16.487v303.018c0,9.136-7.406,16.542-16.542,16.542
	H36.233c-9.136,0-16.542-7.406-16.542-16.542V96.886c0-9.136,7.406-16.542,16.542-16.542h439.533 M475.766,64.591H36.233
	C18.415,64.635,3.981,79.068,3.938,96.886v303.018c0.044,17.818,14.477,32.252,32.295,32.295h439.533
	c17.818-0.044,32.252-14.477,32.296-32.295V96.886C508.018,79.068,493.584,64.635,475.766,64.591z"/>
<rect x="145.405" y="103.563" style="fill:#CCCCCC;" width="241.055" height="155.781"/>
<rect x="221.697" y="103.532" style="fill:#FFFFFF;" width="88.214" height="155.812"/>
<g>
	<rect x="141.739" y="106.783" style="fill:#666666;" width="7.877" height="150.567"/>
	<rect x="171.649" y="106.793" style="fill:#666666;" width="7.877" height="150.578"/>
	<rect x="218.03" y="106.793" style="fill:#666666;" width="7.877" height="150.578"/>
	<rect x="382.255" y="106.783" style="fill:#666666;" width="7.877" height="150.567"/>
	<rect x="352.345" y="106.793" style="fill:#666666;" width="7.877" height="150.578"/>
	<rect x="305.974" y="106.793" style="fill:#666666;" width="7.877" height="150.578"/>
</g>
<polyline style="fill:#CCCCCC;" points="146.723,51.507 265.995,0 385.268,51.507 "/>
<g>
	<rect x="124.666" y="256.187" style="fill:#999999;" width="282.545" height="55.427"/>
	<rect x="124.666" y="51.507" style="fill:#999999;" width="282.545" height="55.427"/>
</g>
<rect x="233.577" y="69.26" style="fill:#CCCCCC;" width="64.711" height="19.919"/>
<g style="opacity:0.3;">
	<rect x="307.449" y="106.938" style="fill:#666666;" width="81.172" height="17.329"/>
</g>
<g style="opacity:0.3;">
	
		<rect x="143.232" y="106.938" transform="matrix(1 0.0024 -0.0024 1 0.278 -0.4408)" style="fill:#666666;" width="81.162" height="17.329"/>
</g>
<g>
	<path style="fill:#E21B1B;" d="M77.603,344.537c4.229-0.711,8.512-1.049,12.8-1.008c4.807-0.462,9.638,0.608,13.8,3.056
		c3.18,1.877,5.094,5.328,5.002,9.019c-0.133,4.845-3.365,9.056-8.011,10.437v0.15c5.674,1.153,9.743,6.152,9.72,11.941
		c0.069,3.853-1.647,7.522-4.647,9.941c-5.239,3.572-11.575,5.168-17.881,4.505c-3.61,0.017-7.217-0.198-10.8-0.646L77.603,344.537z
		 M86.323,363.559h4.505c6.073,0,9.508-2.859,9.508-6.94c0-4.505-3.434-6.585-9.011-6.585c-1.678-0.056-3.358,0.065-5.01,0.362
		L86.323,363.559z M86.323,385.725c1.545,0.171,3.1,0.253,4.656,0.244c5.648,0,10.657-2.134,10.657-8.074
		c0-5.577-4.86-7.877-10.949-7.877h-4.364V385.725z"/>
	<path style="fill:#E21B1B;" d="M128.244,378.431L124.1,392.09h-9.098l15.446-48.199h11.233l15.659,48.199h-9.453l-4.364-13.659
		H128.244z M142.044,371.783l-3.781-11.879c-0.929-2.931-1.717-6.215-2.434-9.011h-0.15c-0.717,2.788-1.433,6.152-2.285,9.011
		l-3.718,11.886L142.044,371.783z"/>
	<path style="fill:#E21B1B;" d="M164.092,392.089v-48.199h9.988l12.438,20.669c3.11,5.192,5.858,10.592,8.223,16.164h0.15
		c-0.567-6.436-0.787-12.658-0.787-20.023v-16.81h8.153v48.199h-9.058l-12.603-21.165c-3.198-5.387-6.09-10.948-8.665-16.659
		l-0.213,0.071c0.354,6.223,0.433,12.603,0.433,20.519v17.235L164.092,392.089z"/>
	<path style="fill:#E21B1B;" d="M212.456,343.891h8.72v22.166h0.213c1.15-1.859,2.363-3.576,3.505-5.223l12.603-16.944h10.87
		l-16.589,20.519l17.668,27.679h-10.319l-13.659-22.102l-4.293,5.151v16.944h-8.72v-48.19H212.456z"/>
	<path style="fill:#E21B1B;" d="M268.902,343.891h8.798v40.834h19.81v7.373h-28.609V343.891z"/>
	<path style="fill:#E21B1B;" d="M344.15,367.49c1.438,12.503-7.531,23.804-20.034,25.243c-1.019,0.117-2.044,0.165-3.069,0.144
		c-12.298,0.007-22.274-9.958-22.281-22.256c0-0.759,0.038-1.518,0.115-2.273c-1.183-12.683,8.139-23.923,20.822-25.107
		c0.685-0.064,1.373-0.098,2.061-0.1c12.293-0.124,22.36,9.742,22.483,22.035C344.255,365.949,344.222,366.721,344.15,367.49z
		 M308.177,368.207c0,9.799,4.939,17.589,13.391,17.589c8.452,0,13.296-7.877,13.296-17.951c0-9.074-4.505-17.66-13.296-17.66
		C312.776,350.184,308.177,358.266,308.177,368.207z"/>
	<path style="fill:#E21B1B;" d="M360.329,378.431l-4.144,13.659h-9.09l15.446-48.199h11.233l15.659,48.199h-9.453l-4.364-13.659
		H360.329z M374.153,371.791l-3.781-11.879c-0.929-2.93-1.717-6.215-2.434-9.011h-0.15c-0.717,2.788-1.433,6.152-2.285,9.011
		l-3.742,11.879H374.153z"/>
	<path style="fill:#E21B1B;" d="M396.209,392.089v-48.199h10.012l12.438,20.669c3.11,5.192,5.858,10.592,8.223,16.164h0.15
		c-0.567-6.436-0.787-12.658-0.787-20.023v-16.81h8.153v48.199h-9.113l-12.603-21.165c-3.198-5.387-6.09-10.948-8.665-16.659
		l-0.213,0.071c0.354,6.223,0.433,12.603,0.433,20.519v17.235L396.209,392.089z"/>
</g>
<g>
</g>
<g>
</g>
<g>
</g>
<g>
</g>
<g>
</g>
<g>
</g>
<g>
</g>
<g>
</g>
<g>
</g>
<g>
</g>
<g>
</g>
<g>
</g>
<g>
</g>
<g>
</g>
<g>
</g>
</svg>
